<svg width="20" height="20" viewBox="0 0 20 20" fill="none" xmlns="http://www.w3.org/2000/svg">
<path d="M15.2606 12.5169L13.0709 11.9328L12.8156 10.9109C13.2491 10.3787 13.5747 9.73906 13.6947 9.02781C14.3838 8.84875 14.6875 7.9725 14.6875 7.5C14.6875 7.09406 14.5288 6.88844 14.375 6.78406V6.25C14.8919 6.25 15.3125 5.82938 15.3125 5.3125C15.3125 4.87188 15.0059 4.50375 14.5956 4.40406C14.5447 4.14594 14.4728 3.89531 14.3809 3.65406C14.3766 3.64062 14.3728 3.62781 14.3669 3.615C13.7944 2.15188 12.5047 1.04188 10.9375 0.721875V0.635313C10.9375 0.306875 10.6809 0.0328126 10.3541 0.0115626C10.1197 -0.00374992 9.87969 -0.00374992 9.64625 0.0115626C9.31906 0.0328126 9.0625 0.306875 9.0625 0.635313V0.721875C7.495 1.04188 6.20563 2.15188 5.63344 3.61469C5.6275 3.62719 5.62375 3.64031 5.61938 3.65375C5.5275 3.895 5.45563 4.14563 5.40469 4.40375C4.99406 4.50375 4.6875 4.87156 4.6875 5.3125C4.6875 5.82938 5.10812 6.25 5.625 6.25V6.78406C5.47125 6.88844 5.3125 7.09375 5.3125 7.5C5.3125 7.97219 5.61562 8.84688 6.30312 9.0275C6.42219 9.7575 6.75125 10.3931 7.18375 10.9144L6.92906 11.9331L4.73938 12.5172C3.23688 12.9172 2.1875 14.2831 2.1875 15.8381V19.6875C2.1875 19.8603 2.3275 20 2.5 20C2.6725 20 2.8125 19.8603 2.8125 19.6875V18.125H5V19.6875C5 19.8603 5.14 20 5.3125 20C5.485 20 5.625 19.8603 5.625 19.6875V15.9375H6.25V16.5625C6.25 16.7353 6.39 16.875 6.5625 16.875H13.4375C13.61 16.875 13.75 16.7353 13.75 16.5625V15.9375H14.375V19.6875C14.375 19.8603 14.515 20 14.6875 20C14.86 20 15 19.8603 15 19.6875V18.125H17.1875V19.6875C17.1875 19.8603 17.3275 20 17.5 20C17.6725 20 17.8125 19.8603 17.8125 19.6875V15.8381C17.8125 14.2831 16.7631 12.9172 15.2606 12.5169ZM14.375 13.75H13.75V12.7609L14.375 12.9275V13.75ZM7.69531 11.4434C8.46156 12.1197 9.37063 12.5 10 12.5C10.6984 12.5 11.5747 12.1053 12.3053 11.4472L12.475 12.1256C12.0125 12.7934 11.3166 13.75 10 13.75C8.68844 13.75 7.98969 12.7947 7.52531 12.1253L7.69531 11.4434ZM13.75 8.28031V7.36781C13.9025 7.2925 14.0006 7.28875 14.0225 7.29969C14.0284 7.30312 14.0625 7.35406 14.0625 7.5C14.0625 7.72094 13.9456 8.07687 13.75 8.28031ZM13.75 6.705C13.6547 6.72906 13.5575 6.76188 13.4563 6.81375C13.275 6.67 13.0547 6.45906 12.9244 6.24969H13.75V6.705ZM13.6009 3.4375H10.9375V1.35969C12.0931 1.63406 13.0616 2.4075 13.6009 3.4375ZM10.3125 0.635313V3.75C10.3125 3.92281 10.4525 4.0625 10.625 4.0625H13.865C13.8984 4.165 13.9275 4.26906 13.9525 4.375H6.04719C6.07219 4.26906 6.10125 4.165 6.13469 4.0625H9.375C9.5475 4.0625 9.6875 3.92281 9.6875 3.75V0.635313C9.89406 0.62125 10.1059 0.62125 10.3125 0.635313ZM9.0625 1.35969V3.4375H6.39875C6.93813 2.4075 7.90688 1.63406 9.0625 1.35969ZM5.3125 5.3125C5.3125 5.14 5.45281 5 5.625 5H14.375C14.5472 5 14.6875 5.14 14.6875 5.3125C14.6875 5.485 14.5472 5.625 14.375 5.625H5.625C5.4525 5.625 5.3125 5.48469 5.3125 5.3125ZM7.075 6.25C6.94438 6.45875 6.72437 6.66938 6.54344 6.81375C6.4425 6.76219 6.34531 6.72906 6.25031 6.70531V6.25H7.075ZM5.9775 7.29969C5.99938 7.28875 6.0975 7.2925 6.25 7.36781V8.28031C6.05437 8.07687 5.9375 7.72094 5.9375 7.49969C5.9375 7.35406 5.97125 7.30312 5.9775 7.29969ZM6.875 7.3475C7.12219 7.16 7.60313 6.74375 7.76031 6.25H12.2397C12.3969 6.74406 12.8778 7.16031 13.125 7.3475V8.4375C13.125 10.4575 11.0978 11.875 10 11.875C8.93031 11.875 6.875 10.4231 6.875 8.4375V7.3475ZM5.625 13.75V12.9275L6.25 12.7609V13.75H5.625ZM2.8125 17.5V15.8384C2.8125 14.5662 3.67094 13.4487 4.90031 13.1209L5 13.0941V17.5H2.8125ZM5.625 14.375H6.5625V15.3125H5.625V14.375ZM13.125 16.25H6.875V15.9375C7.0475 15.9375 7.1875 15.7978 7.1875 15.625V14.0625C7.1875 13.8897 7.0475 13.75 6.875 13.75V12.5941L7.05656 12.5456C7.54719 13.2475 8.41906 14.375 10 14.375C11.5869 14.375 12.4559 13.245 12.9444 12.5459L13.125 12.5941V13.75C12.9525 13.75 12.8125 13.8897 12.8125 14.0625V15.625C12.8125 15.7978 12.9525 15.9375 13.125 15.9375V16.25ZM13.4375 15.3125V14.375H14.375V15.3125H13.4375ZM15 17.5V13.0941L15.0997 13.1206C16.3291 13.4484 17.1875 14.5659 17.1875 15.8381V17.5H15Z" fill="white"/>
<path d="M12.1875 17.5H7.8125C7.64 17.5 7.5 17.6397 7.5 17.8125V19.0625C7.5 19.2353 7.64 19.375 7.8125 19.375H12.1875C12.36 19.375 12.5 19.2353 12.5 19.0625V17.8125C12.5 17.6397 12.36 17.5 12.1875 17.5ZM11.875 18.75H8.125V18.125H11.875V18.75Z" fill="white"/>
</svg>
