<svg width="20" height="20" viewBox="0 0 20 20" fill="none" xmlns="http://www.w3.org/2000/svg">
<path d="M18.6811 18.458L17.0358 19.5441C15.9767 20.2735 11.4631 21.0935 5.32258 13.6546C-0.597184 6.49268 1.09555 2.52107 1.88958 1.60517L3.25588 0.185059C3.57801 -0.0896551 4.06403 -0.0573422 4.34095 0.274499L7.93429 4.52513L7.9365 4.52733C8.19941 4.83877 8.19081 5.32357 7.84496 5.6156V5.6188L6.25248 6.7674C5.6221 7.39237 6.17164 8.37609 6.81603 9.3264L9.88034 12.9446C11.3059 14.3205 12.087 14.9562 12.7691 14.5015L14.0934 13.0243C14.4177 12.7517 14.9015 12.7851 15.1784 13.1148L18.774 17.3655V17.3677C19.0356 17.6801 19.0259 18.1639 18.6811 18.458Z" fill="white"/>
</svg>
