<svg width="20" height="20" fill="none" xmlns="http://www.w3.org/2000/svg"><path d="M15.26 12.517l-2.19-.584-.254-1.022a4.073 4.073 0 00.879-1.883c.689-.18.992-1.056.992-1.528 0-.406-.158-.612-.312-.716V6.25a.937.937 0 00.22-1.846 4.613 4.613 0 00-.214-.75A4.713 4.713 0 0010.938.722V.635a.626.626 0 00-.584-.623 5.46 5.46 0 00-.708 0 .626.626 0 00-.584.623v.087a4.712 4.712 0 00-3.429 2.893l-.014.039a4.619 4.619 0 00-.214.75.937.937 0 00.22 1.846v.534c-.154.104-.313.31-.313.716 0 .472.304 1.347.991 1.527.12.73.448 1.366.88 1.887l-.254 1.02-2.19.583a3.44 3.44 0 00-2.551 3.321v3.85a.312.312 0 10.624 0v-1.563H5v1.563a.312.312 0 10.625 0v-3.75h.625v.624c0 .173.14.313.313.313h6.875c.172 0 .312-.14.312-.313v-.625h.625v3.75a.312.312 0 10.625 0v-1.562h2.188v1.563a.312.312 0 10.625 0v-3.85c0-1.555-1.05-2.92-2.552-3.321zm-.885 1.233h-.625v-.99l.625.168v.822zm-6.68-2.307C8.462 12.12 9.371 12.5 10 12.5c.698 0 1.575-.395 2.305-1.053l.17.679c-.463.667-1.158 1.624-2.475 1.624-1.312 0-2.01-.955-2.475-1.625l.17-.682zM13.75 8.28v-.912c.152-.075.25-.08.273-.068.005.003.04.054.04.2 0 .22-.117.577-.313.78zm0-1.575a1.363 1.363 0 00-.294.109 2.455 2.455 0 01-.532-.564h.826v.455zm-.15-3.268h-2.662V1.36A4.084 4.084 0 0113.6 3.437zM10.314.635V3.75c0 .173.14.313.312.313h3.24c.033.102.063.206.088.312H6.047a3.72 3.72 0 01.088-.313h3.24c.172 0 .313-.14.313-.312V.635a4.64 4.64 0 01.624 0zm-1.25.725v2.077H6.399A4.085 4.085 0 019.062 1.36zm-3.75 3.952c0-.172.14-.312.312-.312h8.75a.313.313 0 010 .625h-8.75a.313.313 0 01-.313-.313zm1.762.938c-.13.209-.35.42-.532.564a1.358 1.358 0 00-.293-.109V6.25h.825zM5.977 7.3c.022-.011.12-.007.273.068v.912a1.284 1.284 0 01-.313-.78c0-.146.034-.197.04-.2zm.898.048c.247-.188.728-.604.885-1.098h4.48c.157.494.638.91.885 1.098v1.09c0 2.02-2.027 3.437-3.125 3.437-1.07 0-3.125-1.452-3.125-3.438v-1.09zm-1.25 6.402v-.822l.625-.167v.989h-.625zM2.812 17.5v-1.662c0-1.272.859-2.39 2.088-2.717l.1-.027V17.5H2.812zm2.813-3.125h.938v.938h-.938v-.938zm7.5 1.875h-6.25v-.313c.173 0 .313-.14.313-.312v-1.563a.312.312 0 00-.313-.312v-1.156l.182-.048c.49.702 1.362 1.829 2.943 1.829 1.587 0 2.456-1.13 2.944-1.83l.181.05v1.155a.312.312 0 00-.313.313v1.562c0 .173.14.313.313.313v.312zm.313-.938v-.937h.937v.938h-.938zM15 17.5v-4.406l.1.027a2.816 2.816 0 012.088 2.717V17.5H15z" fill="#fff"/><path d="M12.188 17.5H7.811a.312.312 0 00-.312.313v1.25c0 .172.14.312.313.312h4.375c.172 0 .312-.14.312-.313v-1.25a.312.312 0 00-.313-.312zm-.313 1.25h-3.75v-.625h3.75v.625z" fill="#fff"/></svg>